<?xml version="1.0" standalone="no"?>
<!DOCTYPE svg PUBLIC "-//W3C//DTD SVG 20010904//EN"
 "http://www.w3.org/TR/2001/REC-SVG-20010904/DTD/svg10.dtd">
<svg version="1.0" xmlns="http://www.w3.org/2000/svg"
 width="800.000000pt" height="800.000000pt" viewBox="0 0 800.000000 800.000000"
 preserveAspectRatio="xMidYMid meet">
<metadata>
Created by potrace 1.11, written by Peter Selinger 2001-2013
</metadata>
<g transform="translate(0.000000,800.000000) scale(0.100000,-0.100000)"
fill="#000000" stroke="none">
<path d="M3879 6990 c-133 -16 -263 -64 -387 -144 -80 -51 -205 -174 -258
-254 -21 -31 -41 -61 -44 -65 -4 -4 -54 8 -111 27 -361 121 -743 18 -989 -266
-148 -169 -221 -366 -224 -595 l-1 -122 -65 -16 c-265 -67 -498 -262 -612
-512 -111 -246 -107 -544 11 -787 22 -44 65 -114 95 -154 l56 -73 -48 -59
c-145 -180 -222 -413 -208 -631 25 -397 288 -729 666 -840 l75 -22 0 -146 c0
-121 4 -159 23 -224 149 -520 679 -805 1186 -636 49 16 90 28 91 27 2 -2 26
-37 53 -78 118 -177 295 -309 502 -375 72 -23 107 -28 235 -32 136 -4 159 -2
246 20 226 59 421 192 541 371 23 33 42 63 44 65 2 2 36 -10 76 -27 174 -72
389 -86 570 -39 236 62 443 216 567 422 81 135 136 344 129 497 l-3 77 70 16
c152 34 311 124 433 245 229 228 322 563 242 875 -25 99 -93 240 -154 320 -25
33 -46 64 -46 69 0 5 20 32 43 60 210 247 276 573 177 880 -93 287 -340 525
-630 605 l-45 12 0 152 c0 167 -17 257 -74 381 -94 207 -291 395 -501 478
-231 91 -500 84 -718 -20 -37 -17 -57 -22 -59 -15 -11 31 -105 178 -142 220
-149 171 -365 286 -586 312 -99 12 -128 12 -226 1z m415 -1550 c192 -65 333
-188 425 -373 79 -158 94 -227 95 -442 1 -202 -3 -218 -70 -273 -68 -56 -173
-62 -218 -13 -10 11 -43 93 -75 183 -71 201 -117 292 -190 367 -75 78 -115 90
-221 67 -153 -33 -302 -128 -467 -299 -180 -186 -311 -434 -380 -717 -34 -139
-43 -395 -19 -510 20 -96 71 -201 142 -296 121 -161 280 -234 507 -234 206 0
395 54 672 192 308 154 554 330 815 584 80 78 155 146 167 153 30 15 117 14
157 -3 77 -32 146 -145 146 -240 0 -32 -13 -69 -53 -147 -177 -345 -452 -651
-780 -867 -322 -211 -672 -321 -1077 -338 -238 -11 -445 30 -647 126 -361 171
-574 456 -639 855 -25 152 -25 455 0 620 104 684 480 1277 963 1519 195 97
318 127 508 122 127 -3 149 -6 239 -36z"/>
</g>
</svg>
