<?xml version="1.0" standalone="no"?>
<!DOCTYPE svg PUBLIC "-//W3C//DTD SVG 20010904//EN"
 "http://www.w3.org/TR/2001/REC-SVG-20010904/DTD/svg10.dtd">
<svg version="1.0" xmlns="http://www.w3.org/2000/svg"
 width="260.000000pt" height="260.000000pt" viewBox="0 0 260.000000 260.000000"
 preserveAspectRatio="xMidYMid meet">
<metadata>
Created by potrace 1.11, written by Peter Selinger 2001-2013
</metadata>
<g transform="translate(0.000000,260.000000) scale(0.100000,-0.100000)"
fill="#000000" stroke="none">
<path d="M1115 2097 c-99 -57 -256 -148 -350 -202 -93 -55 -187 -108 -207
-119 l-38 -21 0 -456 0 -457 33 -16 c17 -9 46 -25 62 -35 17 -10 57 -33 90
-51 33 -18 76 -43 95 -55 19 -12 55 -33 80 -47 25 -14 120 -68 211 -121 232
-134 202 -127 293 -73 43 25 79 46 81 46 3 0 173 98 225 130 22 13 227 131
269 155 20 11 55 31 79 45 l43 24 -228 228 -228 228 227 227 c125 125 227 228
225 229 -1 1 -58 34 -127 73 -69 40 -132 76 -140 81 -8 5 -60 34 -115 66 -55
31 -108 64 -117 72 -10 8 -18 11 -18 6 0 -5 -4 -4 -8 1 -4 6 -27 21 -52 34
-25 13 -52 30 -61 37 -8 8 -20 14 -25 14 -5 0 -29 14 -54 30 -25 16 -49 30
-55 30 -5 0 -91 -47 -190 -103z"/>
</g>
</svg>
